<svg width="491" height="73" viewBox="0 0 491 73" fill="none" xmlns="http://www.w3.org/2000/svg">
<g filter="url(#filter0_d_7_5)">
<path d="M19.648 57C17.472 57 15.808 56.296 14.656 54.888C13.504 53.48 12.928 51.624 12.928 49.32V29.8H6.848V25H12.928V17.32H18.368V25H27.712V29.8H18.368V49.64C18.368 50.5787 18.6027 51.24 19.072 51.624C19.5413 52.008 20.2667 52.2 21.248 52.2H27.712V57H19.648ZM42.3705 12.2V26.28C43.6505 25.4267 45.2505 25 47.1705 25H50.1145C53.5705 25 56.1305 25.8107 57.7945 27.432C59.5012 29.0533 60.3545 31.656 60.3545 35.24V57H54.9145V33.96C54.9145 32.68 54.5305 31.6773 53.7625 30.952C53.0372 30.184 52.0345 29.8 50.7545 29.8H46.5305C45.1652 29.8 44.1412 30.1627 43.4585 30.888C42.7758 31.5707 42.4132 32.3173 42.3705 33.128V57H36.9305V12.2H42.3705ZM79.621 57C75.8663 57 73.1143 56.2107 71.365 54.632C69.6157 53.0107 68.741 50.3867 68.741 46.76V35.24C68.741 31.5707 69.5303 28.9467 71.109 27.368C72.6877 25.7893 75.3117 25 78.981 25H81.989C85.0183 25 87.301 25.8533 88.837 27.56C90.4157 29.224 91.205 31.6773 91.205 34.92V43.24H74.181V48.04C74.181 49.3627 74.5863 50.3867 75.397 51.112C76.2077 51.8373 77.4023 52.2 78.981 52.2H89.157V57H79.621ZM85.893 33.64C85.893 32.5307 85.5303 31.6133 84.805 30.888C84.0797 30.1627 83.1623 29.8 82.053 29.8H78.341C76.805 29.8 75.717 30.1627 75.077 30.888C74.4797 31.5707 74.181 32.5947 74.181 33.96V38.44H85.893V33.64ZM104.776 25V26.536C106.098 25.512 107.805 25 109.896 25H112.2C115.954 25 118.706 25.8107 120.456 27.432C122.205 29.0107 123.08 31.6133 123.08 35.24V46.76C123.08 50.344 122.184 52.9467 120.392 54.568C118.642 56.1893 115.912 57 112.2 57H105.096V67.88H99.6555V25H104.776ZM109.256 29.8C107.848 29.8 106.802 30.184 106.12 30.952C105.437 31.6773 105.096 32.4667 105.096 33.32V52.2H112.84C114.418 52.2 115.613 51.8373 116.424 51.112C117.234 50.3867 117.64 49.3627 117.64 48.04V33.96C117.64 32.6373 117.234 31.6133 116.424 30.888C115.613 30.1627 114.418 29.8 112.84 29.8H109.256ZM136.458 12.2V26.28C137.738 25.4267 139.338 25 141.258 25H144.202C147.658 25 150.218 25.8107 151.882 27.432C153.589 29.0533 154.442 31.656 154.442 35.24V57H149.002V33.96C149.002 32.68 148.618 31.6773 147.85 30.952C147.125 30.184 146.122 29.8 144.842 29.8H140.618C139.253 29.8 138.229 30.1627 137.546 30.888C136.863 31.5707 136.501 32.3173 136.458 33.128V57H131.018V12.2H136.458ZM183.501 57C182.946 57 182.327 56.8293 181.645 56.488C181.005 56.1467 180.45 55.6773 179.981 55.08C178.999 56.36 177.698 57 176.077 57H170.381C167.138 57 164.77 56.36 163.277 55.08C161.826 53.7573 161.101 51.5173 161.101 48.36V47.08C161.101 40.4667 164.215 37.16 170.445 37.16H178.381V33.96C178.381 32.6373 177.975 31.6133 177.165 30.888C176.354 30.1627 175.159 29.8 173.581 29.8H163.661V25H172.941C176.653 25 179.383 25.8107 181.133 27.432C182.925 29.0533 183.821 31.656 183.821 35.24V50.6C183.821 51.24 184.055 51.7307 184.525 52.072C185.037 52.3707 185.869 52.52 187.021 52.52V57H183.501ZM175.437 52.2C176.717 52.2 177.527 51.9013 177.869 51.304C178.21 50.7067 178.381 49.9387 178.381 49V41.96H170.381C169.271 41.96 168.354 42.3227 167.629 43.048C166.903 43.7733 166.541 44.6907 166.541 45.8V49C166.541 50.1093 166.797 50.92 167.309 51.432C167.821 51.944 168.631 52.2 169.741 52.2H175.437ZM198.863 25V26.536C200.186 25.512 201.892 25 203.983 25H206.927C210.383 25 212.943 25.8107 214.607 27.432C216.314 29.0533 217.167 31.656 217.167 35.24V57H211.727V33.96C211.727 32.68 211.343 31.6773 210.575 30.952C209.85 30.184 208.847 29.8 207.567 29.8H203.343C201.935 29.8 200.89 30.184 200.207 30.952C199.524 31.6773 199.183 32.4667 199.183 33.32V57H193.743V25H198.863ZM239.186 57C237.01 57 235.346 56.296 234.194 54.888C233.042 53.48 232.466 51.624 232.466 49.32V29.8H226.386V25H232.466V17.32H237.906V25H247.25V29.8H237.906V49.64C237.906 50.5787 238.14 51.24 238.61 51.624C239.079 52.008 239.804 52.2 240.786 52.2H247.25V57H239.186ZM280.084 46.76C280.084 50.344 279.188 52.9467 277.396 54.568C275.647 56.1893 272.916 57 269.204 57H267.092C263.38 57 260.628 56.1893 258.836 54.568C257.087 52.9467 256.212 50.344 256.212 46.76V35.24C256.212 31.656 257.087 29.0533 258.836 27.432C260.628 25.8107 263.38 25 267.092 25H269.204C272.916 25 275.647 25.8107 277.396 27.432C279.188 29.0533 280.084 31.656 280.084 35.24V46.76ZM274.644 33.96C274.644 32.6373 274.239 31.6133 273.428 30.888C272.617 30.1627 271.423 29.8 269.844 29.8H266.452C264.873 29.8 263.679 30.1627 262.868 30.888C262.057 31.6133 261.652 32.6373 261.652 33.96V48.04C261.652 49.3627 262.057 50.3867 262.868 51.112C263.679 51.8373 264.873 52.2 266.452 52.2H269.844C271.423 52.2 272.617 51.8373 273.428 51.112C274.239 50.3867 274.644 49.3627 274.644 48.04V33.96ZM289.815 25V26.472C290.924 25.4907 292.247 25 293.783 25H294.167C297.153 25 299.265 25.8533 300.503 27.56C301.911 25.8533 303.767 25 306.071 25H306.455C309.057 25 310.977 25.6613 312.215 26.984C313.452 28.3067 314.071 30.6533 314.071 34.024V57H308.951V33.96C308.951 32.2107 308.759 30.9947 308.375 30.312C308.033 29.6293 307.223 29.288 305.943 29.288H305.559C304.279 29.288 303.383 29.736 302.871 30.632C302.401 31.4853 302.145 32.4453 302.103 33.512V57H296.983V33.96C296.983 32.168 296.769 30.952 296.343 30.312C295.916 29.6293 295.148 29.288 294.039 29.288H293.655C292.375 29.288 291.479 29.672 290.967 30.44C290.455 31.1653 290.177 31.9973 290.135 32.936V57H285.015V25H289.815ZM332.185 57C328.43 57 325.678 56.2107 323.929 54.632C322.18 53.0107 321.305 50.3867 321.305 46.76V35.24C321.305 31.656 322.18 29.0533 323.929 27.432C325.721 25.8107 328.473 25 332.185 25H340.441V29.8H331.545C329.966 29.8 328.772 30.1627 327.961 30.888C327.15 31.6133 326.745 32.6373 326.745 33.96V48.04C326.745 49.3627 327.15 50.3867 327.961 51.112C328.772 51.8373 329.966 52.2 331.545 52.2H340.441V57H332.185ZM374.171 46.76C374.171 50.344 373.275 52.9467 371.483 54.568C369.734 56.1893 367.003 57 363.291 57H361.179C357.467 57 354.715 56.1893 352.923 54.568C351.174 52.9467 350.299 50.344 350.299 46.76V35.24C350.299 31.656 351.174 29.0533 352.923 27.432C354.715 25.8107 357.467 25 361.179 25H363.291C367.003 25 369.734 25.8107 371.483 27.432C373.275 29.0533 374.171 31.656 374.171 35.24V46.76ZM368.731 33.96C368.731 32.6373 368.326 31.6133 367.515 30.888C366.705 30.1627 365.51 29.8 363.931 29.8H360.539C358.961 29.8 357.766 30.1627 356.955 30.888C356.145 31.6133 355.739 32.6373 355.739 33.96V48.04C355.739 49.3627 356.145 50.3867 356.955 51.112C357.766 51.8373 358.961 52.2 360.539 52.2H363.931C365.51 52.2 366.705 51.8373 367.515 51.112C368.326 50.3867 368.731 49.3627 368.731 48.04V33.96ZM400.35 55.528C398.942 56.5093 397.235 57 395.23 57H392.606C388.851 57 386.099 56.2107 384.35 54.632C382.601 53.0107 381.726 50.3867 381.726 46.76V35.24C381.726 31.656 382.601 29.0533 384.35 27.432C386.142 25.8107 388.894 25 392.606 25H400.03V12.2H405.47V57H400.35V55.528ZM395.87 52.2C397.278 52.2 398.323 51.8373 399.006 51.112C399.689 50.344 400.03 49.5333 400.03 48.68V29.8H391.966C390.387 29.8 389.193 30.1627 388.382 30.888C387.571 31.6133 387.166 32.6373 387.166 33.96V48.04C387.166 49.3627 387.571 50.3867 388.382 51.112C389.193 51.8373 390.387 52.2 391.966 52.2H395.87ZM424.608 57C420.854 57 418.102 56.2107 416.352 54.632C414.603 53.0107 413.728 50.3867 413.728 46.76V35.24C413.728 31.5707 414.518 28.9467 416.096 27.368C417.675 25.7893 420.299 25 423.968 25H426.976C430.006 25 432.288 25.8533 433.824 27.56C435.403 29.224 436.192 31.6773 436.192 34.92V43.24H419.168V48.04C419.168 49.3627 419.574 50.3867 420.384 51.112C421.195 51.8373 422.39 52.2 423.968 52.2H434.144V57H424.608ZM430.88 33.64C430.88 32.5307 430.518 31.6133 429.792 30.888C429.067 30.1627 428.15 29.8 427.04 29.8H423.328C421.792 29.8 420.704 30.1627 420.064 30.888C419.467 31.5707 419.168 32.5947 419.168 33.96V38.44H430.88V33.64ZM450.147 52.2V29.8H445.475V25H455.267V26.728C456.675 25.576 458.382 25 460.387 25H466.979V30.12H459.747C458.382 30.12 457.358 30.568 456.675 31.464C455.992 32.3173 455.63 33.192 455.587 34.088V52.2H462.563V57H445.475V52.2H450.147Z" fill="#383451"/>
<path d="M476.48 51.6V58H470.08V51.6H476.48Z" fill="#383451"/>
</g>
<defs>
<filter id="filter0_d_7_5" x="6.84801" y="12.2" width="469.632" height="59.68" filterUnits="userSpaceOnUse" color-interpolation-filters="sRGB">
<feFlood flood-opacity="0" result="BackgroundImageFix"/>
<feColorMatrix in="SourceAlpha" type="matrix" values="0 0 0 0 0 0 0 0 0 0 0 0 0 0 0 0 0 0 127 0" result="hardAlpha"/>
<feOffset dy="4"/>
<feComposite in2="hardAlpha" operator="out"/>
<feColorMatrix type="matrix" values="0 0 0 0 0.159202 0 0 0 0 0.157309 0 0 0 0 0.170833 0 0 0 0.8 0"/>
<feBlend mode="normal" in2="BackgroundImageFix" result="effect1_dropShadow_7_5"/>
<feBlend mode="normal" in="SourceGraphic" in2="effect1_dropShadow_7_5" result="shape"/>
</filter>
</defs>
</svg>
